<?xml version="1.0" encoding="iso-8859-1"?>
<!-- Generator: Adobe Illustrator 19.0.0, SVG Export Plug-In . SVG Version: 6.00 Build 0)  -->
<svg xmlns="http://www.w3.org/2000/svg" xmlns:xlink="http://www.w3.org/1999/xlink" version="1.1" id="Layer_1" x="0px" y="0px" viewBox="0 0 512 512" style="enable-background:new 0 0 512 512;" xml:space="preserve" width="512px" height="512px">
<g>
	<g>
		<g>
			<path d="M104.533,237.867c5.891,0,10.667-4.776,10.667-10.667s-4.775-10.667-10.667-10.667h-12.8     c-5.891,0-10.667,4.776-10.667,10.667s4.776,10.667,10.667,10.667H104.533z" fill="#FFFFFF"/>
			<path d="M147.2,237.867H160c5.891,0,10.667-4.776,10.667-10.667s-4.776-10.667-10.667-10.667h-12.8     c-5.891,0-10.667,4.776-10.667,10.667S141.309,237.867,147.2,237.867z" fill="#FFFFFF"/>
			<path d="M313.6,135.11h12.8c5.89,0,10.667-4.775,10.667-10.667c0-5.891-4.777-10.667-10.667-10.667h-12.8     c-5.89,0-10.667,4.775-10.667,10.667C302.933,130.335,307.71,135.11,313.6,135.11z" fill="#FFFFFF"/>
			<path d="M258.133,135.11h12.8c5.89,0,10.667-4.775,10.667-10.667c0-5.891-4.777-10.667-10.667-10.667h-12.8     c-5.89,0-10.667,4.775-10.667,10.667C247.467,130.335,252.243,135.11,258.133,135.11z" fill="#FFFFFF"/>
			<path d="M202.667,135.11h12.8c5.891,0,10.667-4.775,10.667-10.667c0-5.891-4.776-10.667-10.667-10.667h-12.8     c-5.891,0-10.667,4.775-10.667,10.667C192,130.335,196.776,135.11,202.667,135.11z" fill="#FFFFFF"/>
			<path d="M147.2,135.11H160c5.891,0,10.667-4.775,10.667-10.667c0-5.891-4.776-10.667-10.667-10.667h-12.8     c-5.891,0-10.667,4.775-10.667,10.667C136.533,130.335,141.309,135.11,147.2,135.11z" fill="#FFFFFF"/>
			<path d="M81.067,124.444c0,5.891,4.776,10.667,10.667,10.667h12.8c5.891,0,10.667-4.775,10.667-10.667     c0-5.891-4.775-10.667-10.667-10.667h-12.8C85.842,113.777,81.067,118.552,81.067,124.444z" fill="#FFFFFF"/>
			<path d="M208,363.733c-5.891,0-10.667,4.775-10.667,10.667v12.8c0,5.891,4.775,10.667,10.667,10.667     c5.891,0,10.667-4.775,10.667-10.667v-12.8C218.667,368.509,213.891,363.733,208,363.733z" fill="#FFFFFF"/>
			<path d="M218.667,318.933c0-5.891-4.775-10.667-10.667-10.667c-5.891,0-10.667,4.775-10.667,10.667v12.8     c0,5.891,4.775,10.667,10.667,10.667c5.891,0,10.667-4.775,10.667-10.667V318.933z" fill="#FFFFFF"/>
			<path d="M288,370.844v12.8c0,5.891,4.777,10.667,10.667,10.667s10.667-4.775,10.667-10.667v-12.8     c0-5.891-4.777-10.667-10.667-10.667S288,364.952,288,370.844z" fill="#FFFFFF"/>
			<path d="M400,318.933c0-5.891-4.776-10.667-10.667-10.667s-10.667,4.775-10.667,10.667v12.8c0,5.891,4.777,10.667,10.667,10.667     S400,337.624,400,331.733V318.933z" fill="#FFFFFF"/>
			<path d="M400,208c0-5.891-4.776-10.667-10.667-10.667s-10.667,4.775-10.667,10.667v12.8c0,5.891,4.777,10.667,10.667,10.667     S400,226.691,400,220.8V208z" fill="#FFFFFF"/>
			<path d="M400,263.467c0-5.891-4.776-10.667-10.667-10.667s-10.667,4.776-10.667,10.667v12.8c0,5.891,4.777,10.667,10.667,10.667     S400,282.158,400,276.267V263.467z" fill="#FFFFFF"/>
			<path d="M389.333,363.733c-5.89,0-10.667,4.775-10.667,10.667v12.8c0,5.891,4.777,10.667,10.667,10.667S400,393.091,400,387.2     v-12.8C400,368.509,395.224,363.733,389.333,363.733z" fill="#FFFFFF"/>
			<path d="M508.32,434.606l-40-34.667c-4.452-3.857-11.187-3.378-15.046,1.075c-3.858,4.451-3.377,11.188,1.074,15.046L472.738,432     H400v-2.133c0-5.891-4.776-10.667-10.667-10.667s-10.667,4.775-10.667,10.667V432h-69.333v-5.689     c0-5.891-4.777-10.667-10.667-10.667S288,420.42,288,426.311V432h-69.333v-2.133c0-5.891-4.775-10.667-10.667-10.667     c-5.891,0-10.667,4.775-10.667,10.667V432H128v-11.378c0-5.891-4.775-10.667-10.667-10.667c-5.891,0-10.667,4.776-10.667,10.667     V432H61.333V61.127l15.939,18.391c2.11,2.434,5.079,3.681,8.065,3.681c2.476,0,4.963-0.858,6.981-2.606     c4.451-3.858,4.933-10.595,1.074-15.046l-34.667-40c-0.043-0.049-0.08-0.083-0.12-0.127c-1.128-1.26-2.557-2.263-4.211-2.881     c-4.172-1.555-8.87-0.357-11.789,3.008l-34.667,40c-3.858,4.451-3.377,11.188,1.075,15.046     c4.452,3.858,11.188,3.377,15.046-1.075L40,61.127V432H10.667C4.775,432,0,436.775,0,442.667s4.775,10.667,10.667,10.667H40     v26.133c0,5.891,4.775,10.667,10.667,10.667c5.891,0,10.667-4.775,10.667-10.667v-26.133h411.406l-18.391,15.939     c-4.452,3.858-4.933,10.595-1.075,15.046c2.11,2.434,5.078,3.681,8.065,3.681c2.476,0,4.963-0.858,6.981-2.606l40-34.667     c0.06-0.052,0.107-0.099,0.161-0.149c1.244-1.123,2.236-2.542,2.847-4.182C512.883,442.222,511.684,437.522,508.32,434.606z" fill="#FFFFFF"/>
			<path d="M82.667,348.8c0,19.115,15.552,34.667,34.667,34.667c19.115,0,34.667-15.552,34.667-34.667     c0-7.432-2.358-14.32-6.356-19.97l51.103-68.138c3.531,1.216,7.314,1.885,11.253,1.885c6.367,0,12.334-1.733,17.467-4.74     l41.509,37.114c-1.907,4.292-2.976,9.036-2.976,14.027c0,19.115,15.551,34.667,34.667,34.667s34.667-15.552,34.667-34.667     c0-9.753-4.054-18.572-10.559-24.877l61.588-125.351c1.625,0.235,3.282,0.362,4.971,0.362c19.116,0,34.667-15.552,34.667-34.667     c0-5.644-1.364-10.971-3.766-15.685l40.622-40.396c4.177-4.155,4.196-10.908,0.042-15.085     c-4.155-4.178-10.909-4.196-15.086-0.043l-40.622,40.397c-4.755-2.458-10.144-3.855-15.856-3.855     c-19.116,0-34.667,15.552-34.667,34.667c0,9.753,4.054,18.572,10.559,24.877l-61.588,125.353     c-1.625-0.235-3.282-0.362-4.971-0.362c-6.367,0-12.334,1.733-17.467,4.74l-41.508-37.114c1.907-4.292,2.976-9.036,2.976-14.027     c0-19.115-15.552-34.667-34.667-34.667c-19.115,0-34.667,15.552-34.667,34.667c0,7.433,2.358,14.32,6.356,19.969l-51.103,68.138     c-3.532-1.216-7.314-1.885-11.253-1.885C98.219,314.133,82.667,329.685,82.667,348.8z M389.333,111.11     c7.353,0,13.333,5.981,13.333,13.333s-5.981,13.333-13.333,13.333S376,131.796,376,124.444S381.981,111.11,389.333,111.11z      M298.667,295.644c7.353,0,13.333,5.981,13.333,13.333s-5.981,13.333-13.333,13.333s-13.333-5.981-13.333-13.333     S291.314,295.644,298.667,295.644z M208,214.577c7.353,0,13.333,5.981,13.333,13.333s-5.981,13.333-13.333,13.333     s-13.333-5.981-13.333-13.333S200.647,214.577,208,214.577z M117.333,335.467c7.353,0,13.333,5.981,13.333,13.333     c0,7.353-5.981,13.333-13.333,13.333c-7.352,0-13.333-5.981-13.333-13.333C104,341.447,109.981,335.467,117.333,335.467z" fill="#FFFFFF"/>
		</g>
	</g>
</g>
<g>
</g>
<g>
</g>
<g>
</g>
<g>
</g>
<g>
</g>
<g>
</g>
<g>
</g>
<g>
</g>
<g>
</g>
<g>
</g>
<g>
</g>
<g>
</g>
<g>
</g>
<g>
</g>
<g>
</g>
</svg>
