<?xml version="1.0" encoding="iso-8859-1"?>
<!-- Generator: Adobe Illustrator 16.0.0, SVG Export Plug-In . SVG Version: 6.00 Build 0)  -->
<!DOCTYPE svg PUBLIC "-//W3C//DTD SVG 1.1//EN" "http://www.w3.org/Graphics/SVG/1.1/DTD/svg11.dtd">
<svg xmlns="http://www.w3.org/2000/svg" xmlns:xlink="http://www.w3.org/1999/xlink" version="1.1" id="Capa_1" x="0px" y="0px" width="512px" height="512px" viewBox="0 0 31.406 31.406" style="enable-background:new 0 0 31.406 31.406;" xml:space="preserve">
<g>
	<g>
		<path d="M19.493,13.29c0.804,0.694,2.017,0.605,2.711-0.198c0.278-0.322,0.425-0.71,0.456-1.104l0.768-0.552l-0.904-0.533    l0.11-0.773L21.29,9.961l-0.388-0.77l-0.756,0.588l-0.91-0.167l-0.116,1.215C18.632,11.616,18.77,12.662,19.493,13.29z" fill="#FFFFFF"/>
		<polygon points="16.146,22.329 15.379,19.107 13.345,17.354 12.838,18.13 14.27,22.329 13.53,25.521 13.44,25.521 13.44,26.021     16.255,26.021 16.255,25.521 15.678,25.521   " fill="#FFFFFF"/>
		<polygon points="17.164,13.9 17.35,13.874 18.354,13.725 18.54,13.696 18.566,13.883 18.753,15.223 19.857,13.943 17.749,12.12     13.428,17.117 15.539,18.941 16.171,18.21 17.581,16.577 17.191,14.088   " fill="#FFFFFF"/>
		<path d="M31.404,18.048h-3.022v-2.084H24.15v2.084h-3.213l0.215-0.412l-2.471-1.579l-0.3-2.146l-1.003,0.149l0.364,2.333l0,0    l0.057,0.362l2.604,1.666v0.931h0.854v6.409h0.559v-6.409h2.334v1.719h-0.875v0.656h0.494v3.522h0.572v-3.522h3.77v3.44h0.572    v-3.44h0.655V21.07h-0.956v-1.719h1.605v6.362h0.559v-6.362h0.859v-1.304H31.404z M28.055,16.292v1.756H27.07v-1.756H28.055z     M26.607,16.292v1.756H25.87v-1.756H26.607z M24.479,16.292h0.928v1.756h-0.928V16.292z M24.479,21.068V19.35h0.928v1.719H24.479z     M25.87,21.068V19.35h0.737v1.719H25.87z M28.055,21.068H27.07V19.35h0.984V21.068z" fill="#FFFFFF"/>
		<circle cx="3.983" cy="7.972" r="3.03" fill="#FFFFFF"/>
		<path d="M7.12,11.59l-2.036-0.134l-1.154,1.34l-1.118-1.34l-2.687,0.63L0,17.44l0.603-0.006l0.065,0.156l0.25-0.105l0.131-0.057    h0.195l0.053,1.06h0.158v0.69v0.508v5.393H1.248l-1.216,0.264v1.121h1.035l1.208-0.197l0.01,0.197h1.339v-1.25v-0.136v-5.393    h0.762v5.393v0.136v1.25h1.338l0.011-0.197l1.209,0.197h1.034v-1.121l-1.215-0.264H6.555v-5.393v-0.508v-0.69h0.192l0.181-3.528    l1.593-0.669l2.512,1.787l0.865-1.215L7.12,11.59z M9.257,13.688l-8.443,3.548l-0.119-0.282l8.443-3.548L9.257,13.688z     M6.977,14.021l0.042-0.8l0.69,0.492L6.977,14.021z" fill="#FFFFFF"/>
	</g>
</g>
<g>
</g>
<g>
</g>
<g>
</g>
<g>
</g>
<g>
</g>
<g>
</g>
<g>
</g>
<g>
</g>
<g>
</g>
<g>
</g>
<g>
</g>
<g>
</g>
<g>
</g>
<g>
</g>
<g>
</g>
</svg>
